<mxfile host="app.diagrams.net" modified="2021-08-24T20:39:53.441Z" agent="5.0 (Windows NT 10.0; Win64; x64) AppleWebKit/537.36 (KHTML, like Gecko) Chrome/92.0.4515.131 Safari/537.36 Edg/92.0.902.73" etag="wEoTb7-Oa1oePXBnv1YS" version="14.9.9" type="github">
  <diagram id="aVM7JL8yFNVoQ_bMYcZw" name="Page-1">
    <mxGraphModel dx="1374" dy="794" grid="1" gridSize="10" guides="1" tooltips="1" connect="1" arrows="1" fold="1" page="1" pageScale="1" pageWidth="827" pageHeight="1169" math="0" shadow="0">
      <root>
        <mxCell id="0" />
        <mxCell id="1" parent="0" />
        <mxCell id="yrJw-XYOsVwGBDYmubUi-40" style="edgeStyle=orthogonalEdgeStyle;rounded=0;orthogonalLoop=1;jettySize=auto;html=1;exitX=0.5;exitY=1;exitDx=0;exitDy=0;entryX=0.5;entryY=0;entryDx=0;entryDy=0;" edge="1" parent="1" source="yrJw-XYOsVwGBDYmubUi-30" target="yrJw-XYOsVwGBDYmubUi-16">
          <mxGeometry relative="1" as="geometry" />
        </mxCell>
        <mxCell id="yrJw-XYOsVwGBDYmubUi-30" value="" style="rounded=0;whiteSpace=wrap;html=1;" vertex="1" parent="1">
          <mxGeometry x="490" y="315" width="190" height="75" as="geometry" />
        </mxCell>
        <mxCell id="yrJw-XYOsVwGBDYmubUi-19" style="edgeStyle=orthogonalEdgeStyle;rounded=0;orthogonalLoop=1;jettySize=auto;html=1;exitX=0;exitY=0.5;exitDx=0;exitDy=0;entryX=1;entryY=0.5;entryDx=0;entryDy=0;" edge="1" parent="1" source="yrJw-XYOsVwGBDYmubUi-14" target="yrJw-XYOsVwGBDYmubUi-24">
          <mxGeometry relative="1" as="geometry">
            <mxPoint x="290" y="340" as="targetPoint" />
          </mxGeometry>
        </mxCell>
        <mxCell id="yrJw-XYOsVwGBDYmubUi-14" value="" style="rhombus;whiteSpace=wrap;html=1;" vertex="1" parent="1">
          <mxGeometry x="335" y="285" width="120" height="110" as="geometry" />
        </mxCell>
        <mxCell id="yrJw-XYOsVwGBDYmubUi-18" style="edgeStyle=orthogonalEdgeStyle;rounded=0;orthogonalLoop=1;jettySize=auto;html=1;exitX=0.5;exitY=1;exitDx=0;exitDy=0;entryX=0.5;entryY=0;entryDx=0;entryDy=0;" edge="1" parent="1" source="yrJw-XYOsVwGBDYmubUi-13" target="yrJw-XYOsVwGBDYmubUi-14">
          <mxGeometry relative="1" as="geometry" />
        </mxCell>
        <mxCell id="yrJw-XYOsVwGBDYmubUi-13" value="" style="shape=parallelogram;perimeter=parallelogramPerimeter;whiteSpace=wrap;html=1;fixedSize=1;" vertex="1" parent="1">
          <mxGeometry x="290" y="210" width="210" height="60" as="geometry" />
        </mxCell>
        <mxCell id="yrJw-XYOsVwGBDYmubUi-6" style="edgeStyle=orthogonalEdgeStyle;rounded=0;orthogonalLoop=1;jettySize=auto;html=1;exitX=0.5;exitY=1;exitDx=0;exitDy=0;entryX=0.5;entryY=0;entryDx=0;entryDy=0;" edge="1" parent="1" source="yrJw-XYOsVwGBDYmubUi-1" target="yrJw-XYOsVwGBDYmubUi-4">
          <mxGeometry relative="1" as="geometry" />
        </mxCell>
        <mxCell id="yrJw-XYOsVwGBDYmubUi-1" value="" style="ellipse;whiteSpace=wrap;html=1;" vertex="1" parent="1">
          <mxGeometry x="330" y="20" width="120" height="50" as="geometry" />
        </mxCell>
        <mxCell id="yrJw-XYOsVwGBDYmubUi-2" value="START" style="text;html=1;strokeColor=none;fillColor=none;align=center;verticalAlign=middle;whiteSpace=wrap;rounded=0;" vertex="1" parent="1">
          <mxGeometry x="370" y="35" width="40" height="20" as="geometry" />
        </mxCell>
        <mxCell id="yrJw-XYOsVwGBDYmubUi-10" value="" style="edgeStyle=orthogonalEdgeStyle;rounded=0;orthogonalLoop=1;jettySize=auto;html=1;" edge="1" parent="1" source="yrJw-XYOsVwGBDYmubUi-4">
          <mxGeometry relative="1" as="geometry">
            <mxPoint x="390" y="210" as="targetPoint" />
          </mxGeometry>
        </mxCell>
        <mxCell id="yrJw-XYOsVwGBDYmubUi-4" value="" style="rounded=0;whiteSpace=wrap;html=1;" vertex="1" parent="1">
          <mxGeometry x="295" y="90" width="195" height="100" as="geometry" />
        </mxCell>
        <mxCell id="yrJw-XYOsVwGBDYmubUi-5" value="Install random word package&amp;nbsp; and choose random word, assign it to variable a, it&#39;s length to vailable b, counter_right = 0, counter_wrong = 0, create list of hangman steps pictures, create variable &#39;guessed&#39; with a. length string &quot;-&quot;" style="text;html=1;strokeColor=none;fillColor=none;align=center;verticalAlign=middle;whiteSpace=wrap;rounded=0;" vertex="1" parent="1">
          <mxGeometry x="300" y="125" width="180" height="40" as="geometry" />
        </mxCell>
        <mxCell id="yrJw-XYOsVwGBDYmubUi-8" value="Ask user for input letter and save it to variable c" style="text;html=1;strokeColor=none;fillColor=none;align=center;verticalAlign=middle;whiteSpace=wrap;rounded=0;" vertex="1" parent="1">
          <mxGeometry x="310" y="220" width="160" height="40" as="geometry" />
        </mxCell>
        <mxCell id="yrJw-XYOsVwGBDYmubUi-12" value="a contains c?" style="text;html=1;strokeColor=none;fillColor=none;align=center;verticalAlign=middle;whiteSpace=wrap;rounded=0;" vertex="1" parent="1">
          <mxGeometry x="355" y="330" width="80" height="20" as="geometry" />
        </mxCell>
        <mxCell id="yrJw-XYOsVwGBDYmubUi-39" style="edgeStyle=orthogonalEdgeStyle;rounded=0;orthogonalLoop=1;jettySize=auto;html=1;exitX=1;exitY=0.5;exitDx=0;exitDy=0;entryX=0;entryY=0.5;entryDx=0;entryDy=0;" edge="1" parent="1" source="yrJw-XYOsVwGBDYmubUi-16" target="yrJw-XYOsVwGBDYmubUi-35">
          <mxGeometry relative="1" as="geometry" />
        </mxCell>
        <mxCell id="yrJw-XYOsVwGBDYmubUi-45" style="edgeStyle=orthogonalEdgeStyle;rounded=0;orthogonalLoop=1;jettySize=auto;html=1;exitX=0;exitY=0.5;exitDx=0;exitDy=0;" edge="1" parent="1" source="yrJw-XYOsVwGBDYmubUi-16">
          <mxGeometry relative="1" as="geometry">
            <mxPoint x="210" y="240" as="targetPoint" />
            <Array as="points">
              <mxPoint x="90" y="475" />
              <mxPoint x="90" y="240" />
            </Array>
          </mxGeometry>
        </mxCell>
        <mxCell id="yrJw-XYOsVwGBDYmubUi-16" value="counter_right == a.length-1?" style="rhombus;whiteSpace=wrap;html=1;" vertex="1" parent="1">
          <mxGeometry x="525" y="410" width="125" height="130" as="geometry" />
        </mxCell>
        <mxCell id="yrJw-XYOsVwGBDYmubUi-21" value="No" style="text;html=1;strokeColor=none;fillColor=none;align=center;verticalAlign=middle;whiteSpace=wrap;rounded=0;" vertex="1" parent="1">
          <mxGeometry x="300" y="320" width="35" height="10" as="geometry" />
        </mxCell>
        <mxCell id="yrJw-XYOsVwGBDYmubUi-22" value="Yes" style="text;html=1;strokeColor=none;fillColor=none;align=center;verticalAlign=middle;whiteSpace=wrap;rounded=0;" vertex="1" parent="1">
          <mxGeometry x="450" y="320" width="40" height="20" as="geometry" />
        </mxCell>
        <mxCell id="yrJw-XYOsVwGBDYmubUi-24" value="" style="rounded=0;whiteSpace=wrap;html=1;" vertex="1" parent="1">
          <mxGeometry x="120" y="395" width="160" height="70" as="geometry" />
        </mxCell>
        <mxCell id="yrJw-XYOsVwGBDYmubUi-26" value="&lt;span style=&quot;color: rgb(0 , 0 , 0) ; font-family: &amp;#34;helvetica&amp;#34; ; font-size: 12px ; font-style: normal ; font-weight: 400 ; letter-spacing: normal ; text-align: center ; text-indent: 0px ; text-transform: none ; word-spacing: 0px ; background-color: rgb(248 , 249 , 250) ; display: inline ; float: none&quot;&gt;counter_right =+1, find location of c in a, replace - with c and print guessed&lt;/span&gt;" style="text;whiteSpace=wrap;html=1;" vertex="1" parent="1">
          <mxGeometry x="500" y="330" width="170" height="30" as="geometry" />
        </mxCell>
        <mxCell id="yrJw-XYOsVwGBDYmubUi-55" style="edgeStyle=orthogonalEdgeStyle;rounded=0;orthogonalLoop=1;jettySize=auto;html=1;exitX=0.5;exitY=0;exitDx=0;exitDy=0;entryX=0.5;entryY=1;entryDx=0;entryDy=0;" edge="1" parent="1" source="yrJw-XYOsVwGBDYmubUi-28" target="yrJw-XYOsVwGBDYmubUi-49">
          <mxGeometry relative="1" as="geometry" />
        </mxCell>
        <mxCell id="yrJw-XYOsVwGBDYmubUi-28" value="&lt;span style=&quot;color: rgb(0 , 0 , 0) ; font-family: &amp;#34;helvetica&amp;#34; ; font-size: 12px ; font-style: normal ; font-weight: 400 ; letter-spacing: normal ; text-align: center ; text-indent: 0px ; text-transform: none ; word-spacing: 0px ; background-color: rgb(248 , 249 , 250) ; display: inline ; float: none&quot;&gt;counter_wrong =+1, draw hangman picture nr counter_wrong -1&lt;/span&gt;" style="text;whiteSpace=wrap;html=1;" vertex="1" parent="1">
          <mxGeometry x="160" y="395" width="120" height="30" as="geometry" />
        </mxCell>
        <mxCell id="yrJw-XYOsVwGBDYmubUi-33" style="edgeStyle=orthogonalEdgeStyle;rounded=0;orthogonalLoop=1;jettySize=auto;html=1;exitX=0;exitY=1;exitDx=0;exitDy=0;entryX=0.75;entryY=1;entryDx=0;entryDy=0;" edge="1" parent="1" source="yrJw-XYOsVwGBDYmubUi-22" target="yrJw-XYOsVwGBDYmubUi-22">
          <mxGeometry relative="1" as="geometry" />
        </mxCell>
        <mxCell id="yrJw-XYOsVwGBDYmubUi-43" style="edgeStyle=orthogonalEdgeStyle;rounded=0;orthogonalLoop=1;jettySize=auto;html=1;exitX=0.5;exitY=1;exitDx=0;exitDy=0;entryX=0.5;entryY=0;entryDx=0;entryDy=0;" edge="1" parent="1" source="yrJw-XYOsVwGBDYmubUi-35" target="yrJw-XYOsVwGBDYmubUi-42">
          <mxGeometry relative="1" as="geometry" />
        </mxCell>
        <mxCell id="yrJw-XYOsVwGBDYmubUi-35" value="" style="rounded=0;whiteSpace=wrap;html=1;" vertex="1" parent="1">
          <mxGeometry x="700" y="445" width="120" height="60" as="geometry" />
        </mxCell>
        <mxCell id="yrJw-XYOsVwGBDYmubUi-36" value="Print a, print &quot;You win&quot;" style="text;html=1;strokeColor=none;fillColor=none;align=center;verticalAlign=middle;whiteSpace=wrap;rounded=0;" vertex="1" parent="1">
          <mxGeometry x="720" y="462.5" width="70" height="25" as="geometry" />
        </mxCell>
        <mxCell id="yrJw-XYOsVwGBDYmubUi-42" value="STOP" style="ellipse;whiteSpace=wrap;html=1;" vertex="1" parent="1">
          <mxGeometry x="702.5" y="550" width="115" height="50" as="geometry" />
        </mxCell>
        <mxCell id="yrJw-XYOsVwGBDYmubUi-44" value="Yes" style="text;html=1;strokeColor=none;fillColor=none;align=center;verticalAlign=middle;whiteSpace=wrap;rounded=0;" vertex="1" parent="1">
          <mxGeometry x="650" y="460" width="40" height="20" as="geometry" />
        </mxCell>
        <mxCell id="yrJw-XYOsVwGBDYmubUi-54" style="edgeStyle=orthogonalEdgeStyle;rounded=0;orthogonalLoop=1;jettySize=auto;html=1;exitX=0;exitY=0.5;exitDx=0;exitDy=0;entryX=0;entryY=0.5;entryDx=0;entryDy=0;" edge="1" parent="1" source="yrJw-XYOsVwGBDYmubUi-49" target="yrJw-XYOsVwGBDYmubUi-51">
          <mxGeometry relative="1" as="geometry">
            <Array as="points">
              <mxPoint x="60" y="340" />
              <mxPoint x="60" y="575" />
            </Array>
          </mxGeometry>
        </mxCell>
        <mxCell id="yrJw-XYOsVwGBDYmubUi-56" style="edgeStyle=orthogonalEdgeStyle;rounded=0;orthogonalLoop=1;jettySize=auto;html=1;exitX=0.5;exitY=0;exitDx=0;exitDy=0;entryX=0;entryY=0.5;entryDx=0;entryDy=0;" edge="1" parent="1" source="yrJw-XYOsVwGBDYmubUi-49" target="yrJw-XYOsVwGBDYmubUi-13">
          <mxGeometry relative="1" as="geometry">
            <Array as="points">
              <mxPoint x="210" y="240" />
            </Array>
          </mxGeometry>
        </mxCell>
        <mxCell id="yrJw-XYOsVwGBDYmubUi-49" value="" style="shape=parallelogram;perimeter=parallelogramPerimeter;whiteSpace=wrap;html=1;fixedSize=1;" vertex="1" parent="1">
          <mxGeometry x="150" y="310" width="120" height="60" as="geometry" />
        </mxCell>
        <mxCell id="yrJw-XYOsVwGBDYmubUi-50" value="counter_wrong == 6?" style="text;html=1;strokeColor=none;fillColor=none;align=center;verticalAlign=middle;whiteSpace=wrap;rounded=0;" vertex="1" parent="1">
          <mxGeometry x="190" y="330" width="40" height="20" as="geometry" />
        </mxCell>
        <mxCell id="yrJw-XYOsVwGBDYmubUi-53" style="edgeStyle=orthogonalEdgeStyle;rounded=0;orthogonalLoop=1;jettySize=auto;html=1;exitX=1;exitY=0.5;exitDx=0;exitDy=0;entryX=0;entryY=0.5;entryDx=0;entryDy=0;" edge="1" parent="1" source="yrJw-XYOsVwGBDYmubUi-51" target="yrJw-XYOsVwGBDYmubUi-42">
          <mxGeometry relative="1" as="geometry" />
        </mxCell>
        <mxCell id="yrJw-XYOsVwGBDYmubUi-51" value="" style="rounded=0;whiteSpace=wrap;html=1;" vertex="1" parent="1">
          <mxGeometry x="110" y="545" width="120" height="60" as="geometry" />
        </mxCell>
        <mxCell id="yrJw-XYOsVwGBDYmubUi-52" value="Print Game over" style="text;html=1;strokeColor=none;fillColor=none;align=center;verticalAlign=middle;whiteSpace=wrap;rounded=0;" vertex="1" parent="1">
          <mxGeometry x="150" y="560" width="40" height="20" as="geometry" />
        </mxCell>
        <mxCell id="yrJw-XYOsVwGBDYmubUi-57" value="No" style="text;html=1;strokeColor=none;fillColor=none;align=center;verticalAlign=middle;whiteSpace=wrap;rounded=0;" vertex="1" parent="1">
          <mxGeometry x="170" y="270" width="35" height="10" as="geometry" />
        </mxCell>
        <mxCell id="yrJw-XYOsVwGBDYmubUi-58" value="No" style="text;html=1;strokeColor=none;fillColor=none;align=center;verticalAlign=middle;whiteSpace=wrap;rounded=0;" vertex="1" parent="1">
          <mxGeometry x="490" y="460" width="35" height="10" as="geometry" />
        </mxCell>
        <mxCell id="yrJw-XYOsVwGBDYmubUi-59" value="Yes" style="text;html=1;strokeColor=none;fillColor=none;align=center;verticalAlign=middle;whiteSpace=wrap;rounded=0;" vertex="1" parent="1">
          <mxGeometry x="120" y="320" width="40" height="20" as="geometry" />
        </mxCell>
      </root>
    </mxGraphModel>
  </diagram>
</mxfile>
